<?xml version="1.0" encoding="UTF-8" ?>
<svg version="1.1" width="27" height="23" xmlns="http://www.w3.org/2000/svg" shape-rendering="crispEdges">
<rect x="21" y="4" width="4" height="2" fill="#FFFFFF" />
<rect x="19" y="6" width="2" height="5" fill="#FFFFFF" />
<rect x="25" y="6" width="2" height="5" fill="#FFFFFF" />
<rect x="10" y="8" width="5" height="1" fill="#FFFFFF" />
<rect x="8" y="9" width="2" height="6" fill="#FFFFFF" />
<rect x="10" y="9" width="5" height="4" fill="#000000" />
<rect x="15" y="9" width="4" height="2" fill="#FFFFFF" />
<rect x="15" y="11" width="6" height="2" fill="#000000" />
<rect x="21" y="11" width="4" height="2" fill="#FFFFFF" />
<rect x="6" y="13" width="2" height="2" fill="#FFFFFF" />
<rect x="10" y="13" width="4" height="3" fill="#FFFFFF" />
<rect x="14" y="13" width="3" height="3" fill="#000000" />
<rect x="17" y="13" width="2" height="2" fill="#5FCDE4" />
<rect x="19" y="13" width="2" height="3" fill="#000000" />
<rect x="21" y="13" width="2" height="3" fill="#FFFFFF" />
<rect x="2" y="15" width="4" height="1" fill="#FFFFFF" />
<rect x="17" y="15" width="2" height="1" fill="#000000" />
<rect x="0" y="16" width="2" height="2" fill="#FFFFFF" />
<rect x="8" y="16" width="2" height="2" fill="#FFFFFF" />
<rect x="14" y="16" width="7" height="2" fill="#FFFFFF" />
<rect x="2" y="18" width="6" height="2" fill="#FFFFFF" />
</svg>